<svg xmlns="http://www.w3.org/2000/svg" fill="none" viewBox="0 0 1200 1200">
  <path fill="#fff" d="m1159.3 455.034-88.8-52.103c-20.58-12.311-37.59-29.703-49.37-50.478a136.9 136.9 0 0 1-17.83-68.056V180.042c0-21.367-9.499-41.494-25.799-54.929-48.497-39.988-103.05-72.144-161.65-95.283a68.527 68.527 0 0 0-59.65 4.512l-88.849 52.35a131.853 131.853 0 0 1-67.2 18.392 131.85 131.85 0 0 1-67.2-18.391l-88.85-52.351a67.908 67.908 0 0 0-29.324-9.153 68.026 68.026 0 0 0-30.376 4.691c-58.551 23.087-113.069 55.175-161.549 95.085a71.464 71.464 0 0 0-19.07 24.615 70.89 70.89 0 0 0-6.73 30.313v104.306c0 48.881-25.5 94.043-67.2 118.583l-88.7 52.153c-18.15 10.658-30.5 29.15-33.75 50.219a589.952 589.952 0 0 0-7.4 95.184c0 32.323 2.417 63.984 7.25 94.985 3.25 21.069 15.6 39.71 33.75 50.368l88.7 52.153c20.589 12.315 37.604 29.714 49.383 50.499a136.91 136.91 0 0 1 17.817 68.084v104.303c0 21.37 9.55 41.5 25.8 54.93 48.25 39.66 102.7 71.98 161.549 95.14 19.65 7.68 41.55 6.14 59.7-4.52l88.85-52.3a131.908 131.908 0 0 1 67.2-18.39 131.91 131.91 0 0 1 67.2 18.39l88.849 52.3c18.15 10.66 40.2 12.2 59.65 4.52 58.576-23.12 113.111-55.24 161.6-95.19a71.441 71.441 0 0 0 19.058-24.59 70.837 70.837 0 0 0 6.741-30.29V916.427a136.892 136.892 0 0 1 17.82-68.084c11.78-20.785 28.79-38.184 49.38-50.499l88.7-52.153c18.15-10.658 30.5-29.15 33.75-50.368 4.77-31.001 7.18-62.662 7.25-94.985 0-32.389-2.42-64.067-7.25-95.035a69.53 69.53 0 0 0-11.02-28.869 70.126 70.126 0 0 0-22.48-21.351l.05-.049ZM600.152 967.638c-199.05 0-360.499-164.44-360.499-367.201 0-202.761 161.449-367.151 360.499-367.151 199.049 0 360.499 164.39 360.499 367.151 0 202.761-161.5 367.201-360.499 367.201Z"/>
  <path fill="#fff" d="M493.907 296.798c-50.766 4.961-101.402 70.325-70.148 129.433 29.354 55.398 90.48 50.048 109.259 113.254 17.483-23.988 52.061-51.083 110.64-22.909 37.902-140.306-42.089-230.047-149.751-219.778Zm346.684 237.294c-62.594-2.373-89.66 53.025-153.765 37.752 11.958 27.051 18.649 71.188-35.096 107.861 102.611 102.9 219.511 78.092 264.449-20.235 21.109-46.38-8.72-122.962-75.588-125.378Zm-334.554 70.11c-140.469 37.32-177.421 151.912-114.654 239.97 29.613 41.462 111.46 52.636 147.031-4.056 33.369-52.981-2.159-103.115 43.168-151.005-29.398-3.15-70.667-20.106-75.545-84.909ZM655.875 602.445c-1.514 30.803-27.737 54.547-58.57 53.033-30.833-1.513-54.599-27.711-53.085-58.513 1.515-30.803 27.738-54.547 58.571-53.034 30.832 1.513 54.599 27.711 53.084 58.514Z"/>
</svg>
